<?xml version="1.0" encoding="UTF-8" standalone="no"?>
<svg
   xmlns:osb="http://www.openswatchbook.org/uri/2009/osb"
   xmlns:dc="http://purl.org/dc/elements/1.1/"
   xmlns:cc="http://creativecommons.org/ns#"
   xmlns:rdf="http://www.w3.org/1999/02/22-rdf-syntax-ns#"
   xmlns:svg="http://www.w3.org/2000/svg"
   xmlns="http://www.w3.org/2000/svg"
   xmlns:sodipodi="http://sodipodi.sourceforge.net/DTD/sodipodi-0.dtd"
   xmlns:inkscape="http://www.inkscape.org/namespaces/inkscape"
   version="1.1"
   id="svg833"
   width="1153"
   height="622"
   viewBox="0 0 1153 622"
   sodipodi:docname="404page.svg"
   inkscape:version="1.0 (4035a4fb49, 2020-05-01)">
  <metadata
     id="metadata839">
    <rdf:RDF>
      <cc:Work
         rdf:about="">
        <dc:format>image/svg+xml</dc:format>
        <dc:type
           rdf:resource="http://purl.org/dc/dcmitype/StillImage" />
        <dc:title />
      </cc:Work>
    </rdf:RDF>
  </metadata>
  <defs
     id="defs837">
    <linearGradient
       id="linearGradient887"
       osb:paint="solid">
      <stop
         style="stop-color:#2191bc;stop-opacity:1;"
         offset="0"
         id="stop885" />
    </linearGradient>
  </defs>
  <sodipodi:namedview
     inkscape:document-rotation="0"
     pagecolor="#ffffff"
     bordercolor="#666666"
     borderopacity="1"
     objecttolerance="10"
     gridtolerance="10"
     guidetolerance="10"
     inkscape:pageopacity="0"
     inkscape:pageshadow="2"
     inkscape:window-width="1366"
     inkscape:window-height="715"
     id="namedview835"
     showgrid="false"
     inkscape:zoom="1.0289025"
     inkscape:cx="670.26209"
     inkscape:cy="232.15384"
     inkscape:window-x="-8"
     inkscape:window-y="-8"
     inkscape:window-maximized="1"
     inkscape:current-layer="g841" />
  <g
     inkscape:groupmode="layer"
     inkscape:label="Image"
     id="g841">
    <path
       style="fill:#eff4f6;fill-opacity:1;stroke:#eff4f6;stroke-width:1px;stroke-linecap:butt;stroke-linejoin:miter;stroke-opacity:1"
       d="m 305.09261,215.27778 25.5473,-28.8796 17.7721,-19.99356 17.772,-16.6613 23.3258,21.10431 24.4366,23.32583 14.4398,16.6613 24.4366,-14.43979 11.1075,-4.44302 11.1076,9.99678 94.414,-2.2215 4.443,-9.99678 36.6549,-21.10432 14.4398,9.99678 13.329,11.10754 16.6614,-4.44302 8.886,8.88603 36.6548,64.42371 -637.57254,-12.21829 42.20864,-31.1011 14.4398,7.77527 16.6613,12.21829 z"
       id="path906" />
    <path
       style="fill:#bde2f1;stroke:#bde2f1;stroke-width:1px;stroke-linecap:butt;stroke-linejoin:miter;stroke-opacity:1;fill-opacity:1"
       d="m -0.65789474,191.44737 18.42105274,-17.76316 6.578947,1.97368 17.105263,18.42106 5.263158,2.63158 26.973685,26.97368 2.631578,-1.97368 16.447369,26.31579 39.473682,-20.39474 1.97369,3.28947 5.92105,-3.28947 6.57895,3.28947 90.13158,20.39474 85.58213,-57.3764 18.36523,11.32377 5.92106,12.5 h 5.26315 l 11.18421,8.55263 15.13158,-9.21053 19.73685,17.10527 92.76315,-35.52632 v -3.94737 L 555.92105,173.02632 561.18421,175 618.42105,213.81579 700,181.57895 l 45.39474,-25.6579 98.02631,68.42106 125,-33.55264 49.34215,-27.63158 34.2105,28.94737 19.0789,15.13158 12.5,1.97369 11.8421,26.97368 13.8158,13.81579 44.079,46.05263 -1154.6052895,0.6579 z"
       id="path863" />
    <path
       style="fill:#a2dff6;fill-opacity:1;stroke:#a2dff6;stroke-width:1px;stroke-linecap:butt;stroke-linejoin:miter;stroke-opacity:1"
       d="M -0.925906,335.18519 V 220.83333 l 33.796296,22.22223 8.333334,12.96296 25,13.42592 21.296296,21.75926 11.11111,-10.18518 17.12963,-18.98148 58.7963,-44.90741 0.92592,-4.16667 60.18519,-53.7037 h 3.24074 l 5.55555,-1.38889 25.46297,25 3.24074,2.31482 10.64815,12.96296 3.24074,0.46296 6.94444,7.87037 11.11111,8.7963 16.66667,16.66666 9.25926,18.98149 7.87037,1.85185 15.27778,-9.25926 27.77777,-15.74074 4.16667,1.38889 8.33333,-2.77778 3.58188,7.82164 7.9922,-3.65497 3.24074,8.33333 5.09259,-0.92593 30.09259,21.75926 28.24075,-12.5 4.16666,0.92593 4.62963,-2.31482 31.94445,12.03704 10.64814,-6.94444 12.03704,-6.94445 4.16667,-6.01852 96.29629,-54.16666 0.92593,2.31481 10.18519,7.40741 13.42592,17.12963 9.72222,0.46296 10.18519,11.57408 12.03704,-2.31482 -0.46297,-2.77778 10.64815,-5.09259 10.64815,10.18519 51.85185,14.81481 81.48148,-50 79.16667,-29.62963 8.7963,0.92593 h 9.25925 l 21.2963,17.59259 22.68514,17.12963 18.5185,1.85185 19.4445,14.81482 2.3148,7.4074 13.4259,6.94445 10.6482,15.74074 33.7963,26.38889 44.9074,22.68518 21.808,6.70078 -0.049,41.44737 z"
       id="path865" />
    <path
       style="fill:#b6dcea;stroke:#b6dcea;stroke-width:1px;stroke-linecap:butt;stroke-linejoin:miter;stroke-opacity:1;fill-opacity:1"
       d="M 0,377.91411 -0.92592593,335.18519 1153.2405,337.5 l 0.1337,42.8681 z"
       id="path867" />
    <path
       style="fill:#d1e4eb;stroke:#d1e4eb;stroke-width:1px;stroke-linecap:butt;stroke-linejoin:miter;stroke-opacity:1;fill-opacity:1"
       d="M 1153.3742,417.17791 V 380.3681 L 0,377.91411 v 40.4908 z"
       id="path869" />
    <path
       style="fill:#e3eef2;stroke:#e3eef2;stroke-width:1px;stroke-linecap:butt;stroke-linejoin:miter;stroke-opacity:1;fill-opacity:1"
       d="M 1153.3742,463.80368 V 417.17791 L 0,418.40491 -0.61349693,464.41718 Z"
       id="path871" />
    <path
       style="fill:#f0f3f4;stroke:#f0f3f4;stroke-width:1px;stroke-linecap:butt;stroke-linejoin:miter;stroke-opacity:1;fill-opacity:1"
       d="M 1153,622 1153.3742,463.80368 -0.61349693,464.41718 0,622 Z"
       id="path873" />
    <path
       style="fill:#a3dff6;stroke:#a3dff6;stroke-width:1px;stroke-linecap:butt;stroke-linejoin:miter;stroke-opacity:1;fill-opacity:1"
       d="m -0.61349693,614.11043 20.85889593,-15.33742 39.263803,-12.88344 8.588958,-14.72393 15.95092,-7.36196 14.723926,-3.68098 4.907974,1.22699 19.6319,-10.42944 6.13497,-4.90798 22.69939,-7.36196 h 7.36196 l 22.08589,-12.88344 4.90798,-6.74847 35.58282,-33.12883 9.81595,-6.13497 20.2454,0.6135 7.97546,4.90797 7.97546,-0.61349 4.29448,-6.13497 1.22699,-6.13497 9.20246,-5.52147 11.04294,-10.42945 10.42945,-3.68098 28.83435,3.06748 9.81596,0.6135 8.58895,-7.36197 11.04295,-7.36196 13.49693,-2.45399 6.74847,-6.13497 6.74846,-3.68098 12.88344,-3.06748 14.11043,-4.90798 13.49693,-0.61349 7.36196,5.52147 12.88344,4.90797 7.97546,3.68099 11.04294,-3.06749 5.52148,-4.29448 50.30674,1.227 19.01841,9.81595 13.49693,6.13497 10.42945,3.68098 12.26994,-0.6135 7.97546,5.52147 3.06748,-1.84049 13.49694,-3.06748 22.08589,-5.52147 13.49693,-4.90798 18.40491,9.81595 29.44785,7.97546 32.51534,6.13497 11.65644,12.88344 3.06748,13.49693 7.97546,3.68098 11.04295,1.84049 27.60736,-0.6135 h 3.06748 l 9.20246,10.42945 9.81595,6.13497 11.04294,4.29448 14.72393,0.6135 7.36196,-3.68099 22.08589,22.69939 2.45399,9.20246 2.45399,6.74846 7.97546,4.29448 15.95092,-1.84049 21.47239,-4.90798 15.33742,6.13497 15.33743,9.81595 16.56441,3.06749 9.20246,4.90797 23.31288,3.68099 h 11.65645 l 4.908,6.13497 6.7484,8.58895 12.8835,9.81595 9.8159,1.227 8.589,-0.6135 6.1349,9.81595 11.6565,6.13497 11.0429,4.90798 21.4724,0.61349 v 0 L 0,622 Z"
       id="path875" />
    <path
       style="fill:#69bddd;stroke:none;stroke-width:1px;stroke-linecap:butt;stroke-linejoin:miter;stroke-opacity:1;fill-opacity:1"
       d="m 758.28221,555.82822 h 12.88343 l 1.84049,-313.49693 H 760.1227 Z"
       id="path877" />
    <path
       style="fill:#2191bc;fill-opacity:1;stroke:none;stroke-width:1px;stroke-linecap:butt;stroke-linejoin:miter;stroke-opacity:1"
       d="m 767.22108,94.770888 -85.88957,86.503072 83.43558,84.66257 89.57055,-88.34355 z"
       id="path879" />
    <path
       style="fill:#000000;stroke:#000000;stroke-width:1px;stroke-linecap:butt;stroke-linejoin:miter;stroke-opacity:1;fill-opacity:1"
       d="M 306.06061,246.06061 Z"
       id="path855" />
    <text
       xml:space="preserve"
       style="font-style:normal;font-weight:normal;font-size:32.9338px;line-height:1.25;font-family:sans-serif;fill:#ffffff;fill-opacity:1;stroke:#ffffff;stroke-width:0.755906;stroke-miterlimit:4;stroke-dasharray:none;stroke-opacity:1"
       x="713.08472"
       y="177.8828"
       id="text893"
       transform="scale(1.016635,0.9836372)"><tspan
         sodipodi:role="line"
         id="tspan891"
         x="713.08472"
         y="177.8828"
         style="font-style:normal;font-variant:normal;font-weight:bold;font-stretch:normal;font-family:sans-serif;-inkscape-font-specification:'sans-serif Bold';fill:#ffffff;fill-opacity:1;stroke:#ffffff;stroke-width:0.755906;stroke-miterlimit:4;stroke-dasharray:none;stroke-opacity:1">Dead</tspan><tspan
         sodipodi:role="line"
         x="713.08472"
         y="219.05005"
         id="tspan895"
         style="font-style:normal;font-variant:normal;font-weight:bold;font-stretch:normal;font-family:sans-serif;-inkscape-font-specification:'sans-serif Bold';fill:#ffffff;fill-opacity:1;stroke:#ffffff;stroke-width:0.755906;stroke-miterlimit:4;stroke-dasharray:none;stroke-opacity:1"> End</tspan></text>
  </g>
</svg>
